<svg width="20px" height="20px" xmlns="http://www.w3.org/2000/svg" x="0px" y="0px" viewBox="0 0 30 30" enable-background="new 0 0 100 100">
<title>search</title>
<g data-name="chat">
<path d="M13,24a10.9314,10.9314,0,0,0,5.25-1.3362l5.633,5.6331a2.9977,2.9977,0,0,0,4.2344,0l.18-.18a2.9974,2.9974,0,0,0,0-4.2344L22.6638,18.25A10.9984,10.9984,0,1,0,13,24Zm13.8828,1.2969a.9954.9954,0,0,1,0,1.4062l-.18.18a.9954.9954,0,0,1-1.4062,0l-5.3576-5.3576a11.0883,11.0883,0,0,0,1.5859-1.5859ZM13,4a9,9,0,1,1-9,9A9.01,9.01,0,0,1,13,4Z"/></g>
</svg>