<svg width="20px" height="20px" xmlns:dc="http://purl.org/dc/elements/1.1/" xmlns:cc="http://creativecommons.org/ns#" xmlns:rdf="http://www.w3.org/1999/02/22-rdf-syntax-ns#" xmlns:svg="http://www.w3.org/2000/svg" xmlns="http://www.w3.org/2000/svg" xmlns:sodipodi="http://sodipodi.sourceforge.net/DTD/sodipodi-0.dtd" xmlns:inkscape="http://www.inkscape.org/namespaces/inkscape" version="1.1" x="0px" y="0px" viewBox="0 0 100 100">
<g transform="translate(0,-952.36218)">
<path style="text-indent:0;text-transform:none;direction:ltr;block-progression:tb;baseline-shift:baseline;enable-background:accumulate;" d="m 15,968.36217 c -1.05703,0.0171 -1.99798,0.93554 -2,2 l 0,64.00003 c 1.1e-4,1.0472 0.95283,1.9999 2,2 l 70,0 c 1.04717,-10e-5 1.9999,-0.9528 2,-2 l 0,-64.00003 c -1e-4,-1.04717 -0.95283,-1.9999 -2,-2 z m 2,4 66,0 0,4 -66,0 z m 0,8 66,0 0,44.00003 -66,0 z m 24.03125,10.00002 0,24.00001 c -0.008,1.4253 1.7475,2.4898 2.9375,1.7812 l 20,-12 c 1.21407,-0.7029 1.21407,-2.8595 0,-3.5625 l -20,-12.00001 c -1.37567,-0.66717 -2.93686,0.2736 -2.9375,1.7813 z m 3.9375,3.5312 14.09375,8.46881 -14.09375,8.4687 z M 17,1028.3622 l 66,0 0,4 -66,0 z" fill-opacity="1" stroke="none" marker="none" visibility="visible" display="inline" overflow="visible"/></g>
</svg>